<svg width="500" height="500" viewBox="0 0 500 500" fill="none" xmlns="http://www.w3.org/2000/svg">
<path d="M237.909 74.3105V367.74H191.122V301.314H85.9958L118.342 252.217H191.122C191.122 217.565 192.855 185.72 192.855 141.314L237.909 74.3105Z" fill="black"/>
<path d="M40.9416 367.74L85.9958 301.314M191.122 252.217C191.122 217.565 192.855 185.72 192.855 141.314L237.909 74.3105V367.74H191.122C191.122 347.103 191.122 318.736 191.122 301.314M191.122 252.217H118.342L85.9958 301.314M191.122 252.217C191.122 271.342 191.122 280.624 191.122 301.314M191.122 301.314H85.9958" stroke="black" stroke-width="2.31047"/>
<path d="M125.274 241.242L118.342 251.062H124.119L125.274 241.242Z" fill="black" stroke="black" stroke-width="1.15524"/>
<path d="M186.501 149.401L198.054 141.314H192.277L186.501 149.401Z" fill="black" stroke="black" stroke-width="1.15524"/>
<path d="M261.592 72V367.74H306.646V139.581L261.592 72Z" fill="black" stroke="black" stroke-width="1.15524"/>
<path d="M306.646 283.408L363.252 222.758" stroke="black" stroke-width="2.31047"/>
<path d="M430.256 366.585L350.545 236.043L312.422 277.054L367.296 366.585H430.256Z" fill="black" stroke="black" stroke-width="1.15524"/>
<path d="M33.4325 378.137L35.1654 375.827H35.743L33.4325 378.137Z" stroke="black" stroke-width="1.15524"/>
<path d="M35.1654 375.827H465.139" stroke="black" stroke-width="1.15524"/>
<path d="M44.4277 388.097C44.6178 387.957 44.8206 387.868 45.036 387.83L55.4356 413.801C55.5623 414.118 55.7714 414.39 56.063 414.618C56.3545 414.834 56.7157 415.005 57.1466 415.132C57.5903 415.246 57.9705 415.334 58.2874 415.398C58.6169 415.448 59.0162 415.499 59.4851 415.55C59.5358 415.753 59.5612 415.924 59.5612 416.063C59.5612 416.215 59.5358 416.355 59.4851 416.481C56.7474 416.38 54.7004 416.329 53.3443 416.329C51.874 416.329 49.7447 416.38 46.9562 416.481C46.9055 416.329 46.8802 416.177 46.8802 416.025C46.8802 415.86 46.9055 415.702 46.9562 415.55C49.5165 415.271 50.7967 414.789 50.7967 414.105C50.7967 413.889 50.7713 413.668 50.7206 413.439L47.9639 406.367C47.1274 406.342 45.9993 406.329 44.5797 406.329C43.908 406.329 42.1652 406.354 39.3515 406.405L36.4426 413.801V414.029C36.4426 414.156 36.4616 414.276 36.4997 414.39C36.5504 414.504 36.6264 414.606 36.7278 414.694C36.8419 414.783 36.9496 414.859 37.051 414.922C37.1524 414.986 37.2918 415.049 37.4693 415.113C37.6594 415.163 37.8178 415.208 37.9446 415.246C38.084 415.271 38.2678 415.303 38.4959 415.341C38.7367 415.379 38.9205 415.41 39.0473 415.436C39.174 415.448 39.3578 415.467 39.5986 415.493C39.8521 415.518 40.0296 415.537 40.131 415.55C40.1817 415.753 40.207 415.924 40.207 416.063C40.207 416.139 40.1817 416.279 40.131 416.481C37.2918 416.38 35.6948 416.329 35.3399 416.329C34.6555 416.329 32.8937 416.38 30.0546 416.481C30.0039 416.329 29.9786 416.177 29.9786 416.025C29.9786 415.86 30.0039 415.702 30.0546 415.55C32.6909 415.246 34.1929 414.599 34.5605 413.611L42.7356 393.002L42.3173 391.88C43.0398 391.398 43.5404 390.879 43.8193 390.321C44.1108 389.763 44.3136 389.022 44.4277 388.097ZM44.5797 404.846C45.7458 404.846 46.6647 404.833 47.3365 404.808L43.7242 395.454H43.6482L40.0169 404.77C41.2083 404.821 42.7293 404.846 44.5797 404.846ZM61.8236 388.382C64.6627 388.483 66.8681 388.534 68.4397 388.534C70.0114 388.534 72.2168 388.483 75.0559 388.382C75.1066 388.585 75.1319 388.724 75.1319 388.8C75.1319 388.939 75.1066 389.098 75.0559 389.275C74.4729 389.326 73.9976 389.383 73.63 389.446C73.2751 389.497 72.8315 389.586 72.2992 389.713C71.7795 389.839 71.3803 390.023 71.1014 390.264C70.8226 390.492 70.6768 390.771 70.6641 391.1C70.4994 394.852 70.417 398.319 70.417 401.5H70.9683L81.7481 391.1C81.9129 390.86 81.9953 390.676 81.9953 390.549C81.9953 390.308 81.9255 390.112 81.7861 389.96C81.6594 389.795 81.4186 389.675 81.0637 389.598C80.7215 389.51 80.3729 389.446 80.018 389.408C79.6758 389.37 79.1625 389.326 78.478 389.275C78.4273 389.047 78.402 388.889 78.402 388.8C78.402 388.724 78.4273 388.585 78.478 388.382C81.3425 388.483 83.2247 388.534 84.1246 388.534C84.7457 388.534 86.4884 388.483 89.3529 388.382C89.4036 388.585 89.4289 388.724 89.4289 388.8C89.4289 388.889 89.4036 389.047 89.3529 389.275C88.8079 389.326 88.3706 389.377 88.0411 389.427C87.7242 389.478 87.3123 389.567 86.8053 389.694C86.311 389.808 85.8357 389.985 85.3794 390.226C84.9358 390.454 84.5048 390.746 84.0866 391.1L74.2764 400.435L86.349 412.717C88.3769 414.529 90.1577 415.474 91.6913 415.55C91.742 415.753 91.7674 415.924 91.7674 416.063C91.7674 416.215 91.742 416.355 91.6913 416.481C89.8535 416.38 87.8256 416.329 85.6075 416.329C83.6176 416.329 81.2158 416.38 78.402 416.481C78.3513 416.329 78.326 416.177 78.326 416.025C78.326 415.86 78.3513 415.702 78.402 415.55C79.6314 415.512 80.4426 415.404 80.8355 415.227C81.2411 415.036 81.4439 414.713 81.4439 414.257C81.4439 414.092 81.3995 413.934 81.3108 413.782C81.2221 413.63 81.0637 413.433 80.8355 413.192C80.6201 412.939 80.487 412.78 80.4363 412.717L71.1584 403.097L70.417 403.135C70.417 405.847 70.4867 409.377 70.6261 413.725C70.6388 414.054 70.7845 414.339 71.0634 414.58C71.3422 414.808 71.7415 414.986 72.2611 415.113C72.7935 415.239 73.2371 415.334 73.592 415.398C73.9595 415.448 74.4348 415.499 75.0179 415.55C75.0686 415.702 75.0939 415.873 75.0939 416.063C75.0939 416.165 75.0686 416.291 75.0179 416.443C72.8632 416.367 70.6578 416.329 68.4017 416.329C66.1203 416.329 63.9149 416.367 61.7856 416.443C61.7349 416.291 61.7095 416.165 61.7095 416.063C61.7095 415.848 61.7349 415.677 61.7856 415.55C62.1658 415.512 62.47 415.48 62.6981 415.455C62.9263 415.429 63.2368 415.385 63.6297 415.322C64.0353 415.258 64.3585 415.189 64.5993 415.113C64.8528 415.024 65.1127 414.916 65.3788 414.789C65.645 414.663 65.8414 414.51 65.9682 414.333C66.1076 414.156 66.1773 413.953 66.1773 413.725C66.3294 409.757 66.4055 405.759 66.4055 401.728C66.4055 397.622 66.3421 394.079 66.2153 391.1C66.2027 390.771 66.0569 390.492 65.7781 390.264C65.4992 390.023 65.0936 389.839 64.5613 389.713C64.0416 389.586 63.598 389.497 63.2305 389.446C62.8756 389.383 62.4066 389.326 61.8236 389.275C61.7729 389.047 61.7475 388.889 61.7475 388.8C61.7475 388.673 61.7729 388.534 61.8236 388.382ZM111.217 396.424C110.735 394.104 109.848 392.305 108.555 391.024C107.275 389.744 105.735 389.104 103.935 389.104C102.173 389.104 100.804 389.522 99.8285 390.359C98.8652 391.195 98.3836 392.311 98.3836 393.705C98.3836 394.478 98.4533 395.118 98.5927 395.625C98.7321 396.132 99.0173 396.627 99.4482 397.108C99.8792 397.577 100.507 397.995 101.33 398.363C102.154 398.718 103.232 399.06 104.562 399.39C105.285 399.567 105.912 399.732 106.445 399.884C106.99 400.036 107.585 400.245 108.232 400.511C108.891 400.778 109.455 401.063 109.924 401.367C110.405 401.671 110.881 402.051 111.35 402.508C111.831 402.951 112.218 403.446 112.509 403.991C112.814 404.536 113.054 405.182 113.232 405.93C113.422 406.665 113.517 407.47 113.517 408.344C113.517 409.51 113.302 410.588 112.871 411.576C112.44 412.552 111.876 413.376 111.179 414.048C110.481 414.72 109.677 415.29 108.764 415.759C107.851 416.228 106.926 416.57 105.988 416.786C105.05 417.001 104.119 417.109 103.194 417.109C100.38 417.109 97.3823 416.38 94.2009 414.922C94.2643 413.554 94.296 412.711 94.296 412.394C94.296 410.328 94.1249 408.268 93.7827 406.215C93.9221 406.126 94.0615 406.082 94.2009 406.082C94.3784 406.082 94.5368 406.126 94.6762 406.215C94.9424 407.85 95.3797 409.295 95.988 410.55C96.6091 411.804 97.3189 412.799 98.1174 413.535C98.9159 414.257 99.7397 414.802 100.589 415.17C101.451 415.524 102.319 415.702 103.194 415.702C105.183 415.702 106.711 415.189 107.775 414.162C108.853 413.123 109.391 411.754 109.391 410.055C109.391 408.344 108.992 407.058 108.194 406.196C107.408 405.321 105.9 404.612 103.669 404.067C100.88 403.369 98.7004 402.343 97.1288 400.987C95.5698 399.618 94.7903 397.812 94.7903 395.568C94.7903 394.389 94.9804 393.337 95.3607 392.412C95.7536 391.474 96.2542 390.727 96.8626 390.169C97.4837 389.598 98.2061 389.13 99.03 388.762C99.8538 388.382 100.665 388.122 101.463 387.982C102.275 387.83 103.099 387.754 103.935 387.754C106.445 387.754 109.056 388.337 111.768 389.503C111.692 390.251 111.654 391.031 111.654 391.842C111.654 393.743 111.806 395.27 112.11 396.424C111.945 396.487 111.806 396.519 111.692 396.519C111.565 396.519 111.407 396.487 111.217 396.424ZM117.338 388.382C120.178 388.483 122.383 388.534 123.955 388.534C125.526 388.534 127.732 388.483 130.571 388.382C130.621 388.585 130.647 388.724 130.647 388.8C130.647 388.889 130.621 389.047 130.571 389.275C129.988 389.326 129.512 389.383 129.145 389.446C128.79 389.497 128.346 389.586 127.814 389.713C127.294 389.839 126.895 390.023 126.616 390.264C126.337 390.492 126.192 390.771 126.179 391.1C126.014 394.89 125.932 398.42 125.932 401.69C127.339 401.741 129.468 401.766 132.32 401.766C134.652 401.766 136.99 401.728 139.335 401.652C139.285 396.937 139.221 393.42 139.145 391.1C139.132 390.771 138.987 390.492 138.708 390.264C138.429 390.023 138.023 389.839 137.491 389.713C136.959 389.586 136.509 389.497 136.141 389.446C135.786 389.383 135.317 389.326 134.734 389.275C134.684 389.047 134.658 388.889 134.658 388.8C134.658 388.724 134.684 388.585 134.734 388.382C137.599 388.483 139.804 388.534 141.351 388.534C142.91 388.534 145.121 388.483 147.986 388.382C148.036 388.585 148.062 388.724 148.062 388.8C148.062 388.889 148.036 389.047 147.986 389.275C147.403 389.326 146.927 389.383 146.56 389.446C146.205 389.497 145.761 389.586 145.229 389.713C144.697 389.839 144.291 390.023 144.012 390.264C143.733 390.492 143.588 390.771 143.575 391.1C143.448 394.256 143.385 398.033 143.385 402.432C143.385 406.804 143.448 410.569 143.575 413.725C143.588 414.054 143.733 414.339 144.012 414.58C144.291 414.808 144.697 414.986 145.229 415.113C145.761 415.239 146.205 415.334 146.56 415.398C146.927 415.448 147.403 415.499 147.986 415.55C148.036 415.753 148.062 415.924 148.062 416.063C148.062 416.165 148.036 416.291 147.986 416.443C145.831 416.367 143.619 416.329 141.351 416.329C139.082 416.329 136.876 416.367 134.734 416.443C134.684 416.291 134.658 416.165 134.658 416.063C134.658 415.848 134.684 415.677 134.734 415.55C135.317 415.499 135.793 415.448 136.16 415.398C136.528 415.334 136.978 415.239 137.51 415.113C138.042 414.986 138.448 414.808 138.727 414.58C139.006 414.339 139.145 414.054 139.145 413.725C139.247 409.2 139.31 405.771 139.335 403.439C136.99 403.363 134.652 403.325 132.32 403.325C130.875 403.325 128.746 403.35 125.932 403.401C125.932 406.101 126.002 409.542 126.141 413.725C126.154 414.054 126.299 414.339 126.578 414.58C126.857 414.808 127.256 414.986 127.776 415.113C128.308 415.239 128.752 415.334 129.107 415.398C129.474 415.448 129.95 415.499 130.533 415.55C130.583 415.803 130.609 415.974 130.609 416.063C130.609 416.165 130.583 416.291 130.533 416.443C128.378 416.367 126.173 416.329 123.917 416.329C121.635 416.329 119.43 416.367 117.3 416.443C117.25 416.291 117.224 416.165 117.224 416.063C117.224 415.848 117.25 415.677 117.3 415.55C117.883 415.499 118.352 415.448 118.707 415.398C119.075 415.334 119.518 415.239 120.038 415.113C120.57 414.986 120.976 414.808 121.255 414.58C121.534 414.339 121.68 414.054 121.692 413.725C121.844 409.757 121.92 405.759 121.92 401.728C121.92 397.622 121.857 394.079 121.73 391.1C121.718 390.771 121.572 390.492 121.293 390.264C121.014 390.023 120.609 389.839 120.076 389.713C119.557 389.586 119.113 389.497 118.745 389.446C118.39 389.383 117.921 389.326 117.338 389.275C117.288 389.047 117.262 388.889 117.262 388.8C117.262 388.673 117.288 388.534 117.338 388.382ZM164.469 388.097C164.659 387.957 164.862 387.868 165.077 387.83L175.477 413.801C175.604 414.118 175.813 414.39 176.104 414.618C176.396 414.834 176.757 415.005 177.188 415.132C177.632 415.246 178.012 415.334 178.329 415.398C178.658 415.448 179.058 415.499 179.527 415.55C179.577 415.753 179.603 415.924 179.603 416.063C179.603 416.215 179.577 416.355 179.527 416.481C176.789 416.38 174.742 416.329 173.386 416.329C171.915 416.329 169.786 416.38 166.998 416.481C166.947 416.329 166.922 416.177 166.922 416.025C166.922 415.86 166.947 415.702 166.998 415.55C169.558 415.271 170.838 414.789 170.838 414.105C170.838 413.889 170.813 413.668 170.762 413.439L168.005 406.367C167.169 406.342 166.041 406.329 164.621 406.329C163.949 406.329 162.207 406.354 159.393 406.405L156.484 413.801V414.029C156.484 414.156 156.503 414.276 156.541 414.39C156.592 414.504 156.668 414.606 156.769 414.694C156.883 414.783 156.991 414.859 157.092 414.922C157.194 414.986 157.333 415.049 157.511 415.113C157.701 415.163 157.859 415.208 157.986 415.246C158.125 415.271 158.309 415.303 158.537 415.341C158.778 415.379 158.962 415.41 159.089 415.436C159.215 415.448 159.399 415.467 159.64 415.493C159.894 415.518 160.071 415.537 160.172 415.55C160.223 415.753 160.248 415.924 160.248 416.063C160.248 416.139 160.223 416.279 160.172 416.481C157.333 416.38 155.736 416.329 155.381 416.329C154.697 416.329 152.935 416.38 150.096 416.481C150.045 416.329 150.02 416.177 150.02 416.025C150.02 415.86 150.045 415.702 150.096 415.55C152.732 415.246 154.234 414.599 154.602 413.611L162.777 393.002L162.359 391.88C163.081 391.398 163.582 390.879 163.861 390.321C164.152 389.763 164.355 389.022 164.469 388.097ZM164.621 404.846C165.787 404.846 166.706 404.833 167.378 404.808L163.766 395.454H163.69L160.058 404.77C161.25 404.821 162.771 404.846 164.621 404.846ZM180.458 388.382C183.323 388.483 185.623 388.534 187.359 388.534C189.73 388.534 191.872 388.483 193.785 388.382C193.836 388.585 193.862 388.724 193.862 388.8C193.862 388.939 193.836 389.098 193.785 389.275C192.303 389.339 191.213 389.472 190.515 389.675C189.831 389.877 189.489 390.207 189.489 390.663C189.489 390.828 189.597 391.113 189.812 391.519L195.649 401.994H195.801L202.189 391.367C202.341 391.113 202.417 390.853 202.417 390.587C202.417 390.194 202.163 389.909 201.656 389.732C201.162 389.541 200.414 389.389 199.413 389.275C199.362 388.996 199.337 388.825 199.337 388.762C199.337 388.661 199.362 388.534 199.413 388.382C201.048 388.458 202.531 388.496 203.862 388.496C205.294 388.496 206.733 388.458 208.178 388.382C208.228 388.534 208.254 388.661 208.254 388.762C208.254 388.965 208.228 389.136 208.178 389.275C207.252 389.364 206.473 389.554 205.839 389.846C205.205 390.137 204.66 390.644 204.204 391.367L196.314 404.105C196.314 406.842 196.377 410.049 196.504 413.725C196.517 414.054 196.663 414.339 196.941 414.58C197.22 414.808 197.62 414.986 198.139 415.113C198.672 415.239 199.115 415.334 199.47 415.398C199.838 415.448 200.313 415.499 200.896 415.55C200.947 415.702 200.972 415.873 200.972 416.063C200.972 416.165 200.947 416.291 200.896 416.443C198.767 416.367 196.561 416.329 194.28 416.329C192.011 416.329 189.806 416.367 187.664 416.443C187.613 416.291 187.588 416.165 187.588 416.063C187.588 415.848 187.613 415.677 187.664 415.55C188.247 415.499 188.716 415.448 189.071 415.398C189.438 415.334 189.882 415.239 190.401 415.113C190.934 414.986 191.339 414.808 191.618 414.58C191.897 414.339 192.043 414.054 192.055 413.725C192.182 410.543 192.265 407.337 192.303 404.105L184.869 391.1C184.375 390.479 183.766 390.042 183.044 389.789C182.321 389.535 181.459 389.364 180.458 389.275C180.407 389.047 180.382 388.889 180.382 388.8C180.382 388.673 180.407 388.534 180.458 388.382ZM219.851 388.382C222.69 388.483 224.895 388.534 226.467 388.534C228.039 388.534 230.244 388.483 233.083 388.382C233.134 388.585 233.159 388.724 233.159 388.8C233.159 388.939 233.134 389.098 233.083 389.275C232.5 389.326 232.025 389.383 231.657 389.446C231.302 389.497 230.859 389.586 230.326 389.713C229.807 389.839 229.408 390.023 229.129 390.264C228.85 390.492 228.704 390.771 228.691 391.1C228.527 394.852 228.444 398.319 228.444 401.5H228.996L239.775 391.1C239.94 390.86 240.023 390.676 240.023 390.549C240.023 390.308 239.953 390.112 239.813 389.96C239.687 389.795 239.446 389.675 239.091 389.598C238.749 389.51 238.4 389.446 238.045 389.408C237.703 389.37 237.19 389.326 236.505 389.275C236.455 389.047 236.429 388.889 236.429 388.8C236.429 388.724 236.455 388.585 236.505 388.382C239.37 388.483 241.252 388.534 242.152 388.534C242.773 388.534 244.516 388.483 247.38 388.382C247.431 388.585 247.456 388.724 247.456 388.8C247.456 388.889 247.431 389.047 247.38 389.275C246.835 389.326 246.398 389.377 246.068 389.427C245.751 389.478 245.34 389.567 244.833 389.694C244.338 389.808 243.863 389.985 243.407 390.226C242.963 390.454 242.532 390.746 242.114 391.1L232.304 400.435L244.376 412.717C246.404 414.529 248.185 415.474 249.719 415.55C249.769 415.753 249.795 415.924 249.795 416.063C249.795 416.215 249.769 416.355 249.719 416.481C247.881 416.38 245.853 416.329 243.635 416.329C241.645 416.329 239.243 416.38 236.429 416.481C236.379 416.329 236.353 416.177 236.353 416.025C236.353 415.86 236.379 415.702 236.429 415.55C237.659 415.512 238.47 415.404 238.863 415.227C239.268 415.036 239.471 414.713 239.471 414.257C239.471 414.092 239.427 413.934 239.338 413.782C239.249 413.63 239.091 413.433 238.863 413.192C238.647 412.939 238.514 412.78 238.464 412.717L229.186 403.097L228.444 403.135C228.444 405.847 228.514 409.377 228.653 413.725C228.666 414.054 228.812 414.339 229.091 414.58C229.37 414.808 229.769 414.986 230.288 415.113C230.821 415.239 231.264 415.334 231.619 415.398C231.987 415.448 232.462 415.499 233.045 415.55C233.096 415.702 233.121 415.873 233.121 416.063C233.121 416.165 233.096 416.291 233.045 416.443C230.89 416.367 228.685 416.329 226.429 416.329C224.148 416.329 221.942 416.367 219.813 416.443C219.762 416.291 219.737 416.165 219.737 416.063C219.737 415.848 219.762 415.677 219.813 415.55C220.193 415.512 220.497 415.48 220.725 415.455C220.954 415.429 221.264 415.385 221.657 415.322C222.063 415.258 222.386 415.189 222.627 415.113C222.88 415.024 223.14 414.916 223.406 414.789C223.672 414.663 223.869 414.51 223.995 414.333C224.135 414.156 224.205 413.953 224.205 413.725C224.357 409.757 224.433 405.759 224.433 401.728C224.433 397.622 224.369 394.079 224.243 391.1C224.23 390.771 224.084 390.492 223.805 390.264C223.527 390.023 223.121 389.839 222.589 389.713C222.069 389.586 221.625 389.497 221.258 389.446C220.903 389.383 220.434 389.326 219.851 389.275C219.8 389.047 219.775 388.889 219.775 388.8C219.775 388.673 219.8 388.534 219.851 388.382ZM250.327 388.382C252.469 388.458 254.674 388.496 256.943 388.496C259.225 388.496 261.43 388.458 263.559 388.382C263.61 388.585 263.635 388.724 263.635 388.8C263.635 388.889 263.61 389.047 263.559 389.275C263.179 389.313 262.875 389.345 262.647 389.37C262.419 389.396 262.102 389.44 261.696 389.503C261.303 389.567 260.98 389.643 260.727 389.732C260.486 389.808 260.232 389.909 259.966 390.036C259.7 390.163 259.497 390.315 259.358 390.492C259.231 390.669 259.168 390.872 259.168 391.1C259.117 392.786 259.092 397.419 259.092 404.998C259.092 408.61 259.694 411.234 260.898 412.869C262.114 414.504 264.174 415.322 267.077 415.322C270.004 415.322 272.26 414.434 273.845 412.66C275.429 410.873 276.221 408.319 276.221 404.998C276.221 398.952 276.183 394.409 276.107 391.367C276.082 390.226 274.681 389.529 271.906 389.275C271.855 388.996 271.83 388.825 271.83 388.762C271.83 388.661 271.855 388.534 271.906 388.382C273.921 388.458 275.721 388.496 277.305 388.496C278.319 388.496 280.024 388.458 282.419 388.382C282.47 388.534 282.495 388.661 282.495 388.762C282.495 388.965 282.47 389.136 282.419 389.275C279.669 389.529 278.262 390.226 278.199 391.367C278.072 394.383 278.008 398.927 278.008 404.998C278.008 406.849 277.768 408.503 277.286 409.96C276.804 411.405 276.19 412.565 275.442 413.439C274.694 414.314 273.819 415.036 272.818 415.607C271.83 416.177 270.873 416.57 269.947 416.786C269.022 417.001 268.091 417.109 267.153 417.109C265.898 417.109 264.77 417.039 263.768 416.9C262.767 416.76 261.791 416.526 260.841 416.196C259.89 415.854 259.066 415.385 258.369 414.789C257.672 414.181 257.057 413.439 256.525 412.565C255.993 411.69 255.593 410.619 255.327 409.352C255.061 408.084 254.928 406.633 254.928 404.998V401.88C254.928 397.634 254.858 394.041 254.719 391.1C254.706 390.771 254.56 390.492 254.282 390.264C254.003 390.023 253.597 389.839 253.065 389.713C252.545 389.586 252.101 389.497 251.734 389.446C251.379 389.383 250.91 389.326 250.327 389.275C250.276 389.047 250.251 388.889 250.251 388.8C250.251 388.724 250.276 388.585 250.327 388.382ZM284.568 388.382C287.407 388.483 289.675 388.534 291.374 388.534C294.542 388.432 296.488 388.382 297.21 388.382C298.389 388.382 299.498 388.432 300.538 388.534C301.577 388.635 302.648 388.825 303.751 389.104C304.866 389.37 305.874 389.725 306.773 390.169C307.673 390.6 308.535 391.176 309.359 391.899C310.183 392.621 310.874 393.458 311.431 394.409C311.989 395.359 312.433 396.506 312.762 397.85C313.092 399.18 313.257 400.657 313.257 402.279C313.155 403.838 312.883 405.271 312.439 406.576C312.008 407.882 311.45 409.01 310.766 409.96C310.094 410.911 309.296 411.76 308.37 412.508C307.445 413.256 306.476 413.864 305.462 414.333C304.46 414.802 303.37 415.189 302.192 415.493C301.026 415.797 299.885 416.012 298.769 416.139C297.667 416.266 296.526 416.329 295.347 416.329C290.594 416.329 286.988 416.367 284.53 416.443C284.479 416.291 284.453 416.165 284.453 416.063C284.453 415.974 284.479 415.803 284.53 415.55C284.91 415.512 285.214 415.48 285.442 415.455C285.67 415.429 285.981 415.385 286.374 415.322C286.779 415.258 287.102 415.189 287.343 415.113C287.597 415.024 287.857 414.916 288.123 414.789C288.389 414.663 288.585 414.51 288.712 414.333C288.852 414.156 288.921 413.953 288.921 413.725C289.073 409.757 289.149 405.759 289.149 401.728C289.149 397.622 289.086 394.079 288.959 391.1C288.947 390.771 288.801 390.492 288.522 390.264C288.243 390.023 287.838 389.839 287.305 389.713C286.786 389.586 286.342 389.497 285.974 389.446C285.62 389.383 285.151 389.326 284.568 389.275C284.517 389.047 284.491 388.889 284.491 388.8C284.491 388.724 284.517 388.585 284.568 388.382ZM293.408 391.1C293.243 395.41 293.161 399.421 293.161 403.135C293.161 405.188 293.231 409.117 293.37 414.922C293.915 414.948 294.695 414.96 295.709 414.96C297.762 414.96 299.587 414.65 301.184 414.029C302.781 413.395 304.093 412.514 305.119 411.386C306.146 410.258 306.919 408.927 307.439 407.394C307.971 405.847 308.237 404.143 308.237 402.279C308.237 401.316 308.161 400.372 308.009 399.447C307.857 398.521 307.616 397.577 307.287 396.614C306.957 395.651 306.501 394.763 305.918 393.952C305.335 393.141 304.638 392.419 303.827 391.785C303.028 391.138 302.04 390.638 300.861 390.283C299.695 389.915 298.402 389.732 296.982 389.732C295.677 389.732 294.485 389.814 293.408 389.979V391.1ZM330.824 388.097C331.014 387.957 331.217 387.868 331.432 387.83L341.832 413.801C341.958 414.118 342.167 414.39 342.459 414.618C342.75 414.834 343.112 415.005 343.543 415.132C343.986 415.246 344.366 415.334 344.683 415.398C345.013 415.448 345.412 415.499 345.881 415.55C345.932 415.753 345.957 415.924 345.957 416.063C345.957 416.215 345.932 416.355 345.881 416.481C343.143 416.38 341.096 416.329 339.74 416.329C338.27 416.329 336.141 416.38 333.352 416.481C333.301 416.329 333.276 416.177 333.276 416.025C333.276 415.86 333.301 415.702 333.352 415.55C335.912 415.271 337.193 414.789 337.193 414.105C337.193 413.889 337.167 413.668 337.117 413.439L334.36 406.367C333.523 406.342 332.395 406.329 330.976 406.329C330.304 406.329 328.561 406.354 325.747 406.405L322.839 413.801V414.029C322.839 414.156 322.858 414.276 322.896 414.39C322.946 414.504 323.022 414.606 323.124 414.694C323.238 414.783 323.346 414.859 323.447 414.922C323.548 414.986 323.688 415.049 323.865 415.113C324.055 415.163 324.214 415.208 324.341 415.246C324.48 415.271 324.664 415.303 324.892 415.341C325.133 415.379 325.316 415.41 325.443 415.436C325.57 415.448 325.754 415.467 325.995 415.493C326.248 415.518 326.425 415.537 326.527 415.55C326.578 415.753 326.603 415.924 326.603 416.063C326.603 416.139 326.578 416.279 326.527 416.481C323.688 416.38 322.091 416.329 321.736 416.329C321.051 416.329 319.29 416.38 316.451 416.481C316.4 416.329 316.375 416.177 316.375 416.025C316.375 415.86 316.4 415.702 316.451 415.55C319.087 415.246 320.589 414.599 320.956 413.611L329.132 393.002L328.713 391.88C329.436 391.398 329.936 390.879 330.215 390.321C330.507 389.763 330.71 389.022 330.824 388.097ZM330.976 404.846C332.142 404.846 333.061 404.833 333.732 404.808L330.12 395.454H330.044L326.413 404.77C327.604 404.821 329.125 404.846 330.976 404.846ZM348.22 388.382C351.059 388.483 353.264 388.534 354.836 388.534C356.407 388.534 358.613 388.483 361.452 388.382C361.503 388.585 361.528 388.724 361.528 388.8C361.528 388.889 361.503 389.047 361.452 389.275C360.869 389.326 360.394 389.383 360.026 389.446C359.671 389.497 359.227 389.586 358.695 389.713C358.175 389.839 357.776 390.023 357.497 390.264C357.219 390.492 357.073 390.771 357.06 391.1C356.895 395.41 356.813 399.421 356.813 403.135C356.813 405.049 356.883 409.06 357.022 415.17H362.897C364.76 415.043 366.427 414.77 367.897 414.352C369.367 413.934 370.59 413.401 371.566 412.755C372.555 412.096 373.366 411.418 374 410.721C374.646 410.011 375.204 409.219 375.673 408.344C376.002 408.471 376.218 408.642 376.319 408.858C375.8 409.821 375.394 410.6 375.102 411.196C374.824 411.792 374.513 412.578 374.171 413.554C373.841 414.517 373.626 415.442 373.524 416.329H357.022C353.587 416.329 350.64 416.367 348.181 416.443C348.131 416.291 348.105 416.165 348.105 416.063C348.105 415.974 348.131 415.803 348.181 415.55C348.765 415.499 349.233 415.448 349.588 415.398C349.956 415.334 350.4 415.239 350.919 415.113C351.452 414.986 351.857 414.808 352.136 414.58C352.415 414.339 352.561 414.054 352.573 413.725C352.725 409.757 352.801 405.759 352.801 401.728C352.801 397.622 352.738 394.079 352.611 391.1C352.599 390.771 352.453 390.492 352.174 390.264C351.895 390.023 351.49 389.839 350.957 389.713C350.438 389.586 349.994 389.497 349.626 389.446C349.272 389.383 348.803 389.326 348.22 389.275C348.169 389.047 348.143 388.889 348.143 388.8C348.143 388.673 348.169 388.534 348.22 388.382ZM378.601 388.382C381.44 388.483 383.645 388.534 385.217 388.534C386.788 388.534 388.994 388.483 391.833 388.382C391.884 388.585 391.909 388.724 391.909 388.8C391.909 388.939 391.884 389.098 391.833 389.275C391.25 389.326 390.775 389.383 390.407 389.446C390.052 389.497 389.609 389.586 389.076 389.713C388.557 389.839 388.157 390.023 387.878 390.264C387.6 390.492 387.454 390.771 387.441 391.1C387.276 394.852 387.194 398.319 387.194 401.5H387.745L398.525 391.1C398.69 390.86 398.772 390.676 398.772 390.549C398.772 390.308 398.703 390.112 398.563 389.96C398.436 389.795 398.196 389.675 397.841 389.598C397.498 389.51 397.15 389.446 396.795 389.408C396.453 389.37 395.939 389.326 395.255 389.275C395.204 389.047 395.179 388.889 395.179 388.8C395.179 388.724 395.204 388.585 395.255 388.382C398.12 388.483 400.002 388.534 400.902 388.534C401.523 388.534 403.265 388.483 406.13 388.382C406.181 388.585 406.206 388.724 406.206 388.8C406.206 388.889 406.181 389.047 406.13 389.275C405.585 389.326 405.148 389.377 404.818 389.427C404.501 389.478 404.089 389.567 403.582 389.694C403.088 389.808 402.613 389.985 402.156 390.226C401.713 390.454 401.282 390.746 400.864 391.1L391.053 400.435L403.126 412.717C405.154 414.529 406.935 415.474 408.468 415.55C408.519 415.753 408.544 415.924 408.544 416.063C408.544 416.215 408.519 416.355 408.468 416.481C406.631 416.38 404.603 416.329 402.385 416.329C400.395 416.329 397.993 416.38 395.179 416.481C395.128 416.329 395.103 416.177 395.103 416.025C395.103 415.86 395.128 415.702 395.179 415.55C396.408 415.512 397.22 415.404 397.613 415.227C398.018 415.036 398.221 414.713 398.221 414.257C398.221 414.092 398.177 413.934 398.088 413.782C397.999 413.63 397.841 413.433 397.613 413.192C397.397 412.939 397.264 412.78 397.213 412.717L387.935 403.097L387.194 403.135C387.194 405.847 387.264 409.377 387.403 413.725C387.416 414.054 387.562 414.339 387.84 414.58C388.119 414.808 388.518 414.986 389.038 415.113C389.57 415.239 390.014 415.334 390.369 415.398C390.737 415.448 391.212 415.499 391.795 415.55C391.846 415.702 391.871 415.873 391.871 416.063C391.871 416.165 391.846 416.291 391.795 416.443C389.64 416.367 387.435 416.329 385.179 416.329C382.897 416.329 380.692 416.367 378.563 416.443C378.512 416.291 378.487 416.165 378.487 416.063C378.487 415.848 378.512 415.677 378.563 415.55C378.943 415.512 379.247 415.48 379.475 415.455C379.703 415.429 380.014 415.385 380.407 415.322C380.812 415.258 381.136 415.189 381.376 415.113C381.63 415.024 381.89 414.916 382.156 414.789C382.422 414.663 382.618 414.51 382.745 414.333C382.885 414.156 382.954 413.953 382.954 413.725C383.106 409.757 383.182 405.759 383.182 401.728C383.182 397.622 383.119 394.079 382.992 391.1C382.98 390.771 382.834 390.492 382.555 390.264C382.276 390.023 381.871 389.839 381.338 389.713C380.819 389.586 380.375 389.497 380.007 389.446C379.653 389.383 379.184 389.326 378.601 389.275C378.55 389.047 378.525 388.889 378.525 388.8C378.525 388.673 378.55 388.534 378.601 388.382ZM423.26 388.097C423.45 387.957 423.653 387.868 423.868 387.83L434.268 413.801C434.394 414.118 434.603 414.39 434.895 414.618C435.186 414.834 435.548 415.005 435.979 415.132C436.422 415.246 436.802 415.334 437.119 415.398C437.449 415.448 437.848 415.499 438.317 415.55C438.368 415.753 438.393 415.924 438.393 416.063C438.393 416.215 438.368 416.355 438.317 416.481C435.579 416.38 433.532 416.329 432.176 416.329C430.706 416.329 428.577 416.38 425.788 416.481C425.738 416.329 425.712 416.177 425.712 416.025C425.712 415.86 425.738 415.702 425.788 415.55C428.349 415.271 429.629 414.789 429.629 414.105C429.629 413.889 429.603 413.668 429.553 413.439L426.796 406.367C425.959 406.342 424.831 406.329 423.412 406.329C422.74 406.329 420.997 406.354 418.183 406.405L415.275 413.801V414.029C415.275 414.156 415.294 414.276 415.332 414.39C415.382 414.504 415.458 414.606 415.56 414.694C415.674 414.783 415.782 414.859 415.883 414.922C415.984 414.986 416.124 415.049 416.301 415.113C416.491 415.163 416.65 415.208 416.777 415.246C416.916 415.271 417.1 415.303 417.328 415.341C417.569 415.379 417.753 415.41 417.879 415.436C418.006 415.448 418.19 415.467 418.431 415.493C418.684 415.518 418.862 415.537 418.963 415.55C419.014 415.753 419.039 415.924 419.039 416.063C419.039 416.139 419.014 416.279 418.963 416.481C416.124 416.38 414.527 416.329 414.172 416.329C413.488 416.329 411.726 416.38 408.887 416.481C408.836 416.329 408.811 416.177 408.811 416.025C408.811 415.86 408.836 415.702 408.887 415.55C411.523 415.246 413.025 414.599 413.392 413.611L421.568 393.002L421.149 391.88C421.872 391.398 422.372 390.879 422.651 390.321C422.943 389.763 423.146 389.022 423.26 388.097ZM423.412 404.846C424.578 404.846 425.497 404.833 426.168 404.808L422.556 395.454H422.48L418.849 404.77C420.04 404.821 421.561 404.846 423.412 404.846ZM440.656 388.382C443.393 388.483 445.599 388.534 447.272 388.534C447.905 388.534 448.926 388.508 450.333 388.458C451.74 388.407 452.823 388.382 453.584 388.382C456.397 388.382 458.609 389.091 460.219 390.511C461.841 391.931 462.652 393.775 462.652 396.044C462.652 397.869 462.114 399.504 461.036 400.949C459.959 402.381 458.489 403.407 456.626 404.029C457.475 405.55 458.641 407.273 460.124 409.2C461.556 411.114 462.919 412.616 464.211 413.706C465.517 414.796 466.917 415.41 468.413 415.55C468.464 415.753 468.489 415.911 468.489 416.025C468.489 416.152 468.464 416.291 468.413 416.443C467.653 416.405 466.841 416.38 465.979 416.367C465.118 416.355 464.154 416.348 463.09 416.348C462.038 416.348 461.227 416.342 460.656 416.329C457.247 412.362 454.509 408.458 452.443 404.618C451.518 404.618 450.453 404.472 449.249 404.181C449.249 406.64 449.319 409.821 449.458 413.725C449.471 414.054 449.617 414.339 449.895 414.58C450.174 414.808 450.573 414.986 451.093 415.113C451.625 415.239 452.069 415.334 452.424 415.398C452.792 415.448 453.267 415.499 453.85 415.55C453.901 415.803 453.926 415.974 453.926 416.063C453.926 416.165 453.901 416.291 453.85 416.443C451.695 416.367 449.49 416.329 447.234 416.329C444.952 416.329 442.747 416.367 440.618 416.443C440.567 416.291 440.542 416.165 440.542 416.063C440.542 415.848 440.567 415.677 440.618 415.55C440.998 415.512 441.302 415.48 441.53 415.455C441.758 415.429 442.069 415.385 442.462 415.322C442.867 415.258 443.191 415.189 443.431 415.113C443.685 415.024 443.945 414.916 444.211 414.789C444.477 414.663 444.673 414.51 444.8 414.333C444.94 414.156 445.009 413.953 445.009 413.725C445.161 409.757 445.237 405.759 445.237 401.728C445.237 397.622 445.174 394.079 445.047 391.1C445.035 390.771 444.889 390.492 444.61 390.264C444.331 390.023 443.926 389.839 443.393 389.713C442.874 389.586 442.43 389.497 442.062 389.446C441.708 389.383 441.239 389.326 440.656 389.275C440.605 389.047 440.58 388.889 440.58 388.8C440.58 388.724 440.605 388.585 440.656 388.382ZM449.496 389.694H449.458C449.319 394.37 449.249 398.718 449.249 402.736C450.136 403.027 451.036 403.173 451.949 403.173C452.785 403.173 453.533 403.034 454.192 402.755C454.864 402.463 455.415 402.083 455.846 401.614C456.277 401.145 456.632 400.594 456.911 399.96C457.202 399.326 457.405 398.686 457.519 398.04C457.646 397.393 457.709 396.728 457.709 396.044C457.709 394.155 457.19 392.615 456.15 391.424C455.124 390.22 453.66 389.617 451.759 389.617C450.821 389.617 450.066 389.643 449.496 389.694Z" fill="black"/>
<path d="M2 425.502H498" stroke="black" stroke-width="2.31047"/>
<path d="M3.97403 423.192L2.81879 425.502H2.24118L3.97403 423.192Z" stroke="black" stroke-width="1.15524"/>
<path d="M466.068 378.137L464.913 375.827H464.335L466.068 378.137Z" stroke="black" stroke-width="1.15524"/>
<path d="M496.104 422.614L496.682 425.502H497.837L496.104 422.614Z" stroke="black" stroke-width="1.15524"/>
</svg>
