<svg width="360" height="800" viewBox="0 0 360 800" fill="none" xmlns="http://www.w3.org/2000/svg">
<line x1="183.876" y1="-34.3256" x2="183.876" y2="838.853" stroke="#363636" stroke-width="0.852713"/>
<line x1="30.3875" y1="-31.7674" x2="30.3875" y2="841.411" stroke="#363636" stroke-width="0.852713"/>
<line x1="336.512" y1="-36.8837" x2="336.512" y2="836.294" stroke="#363636" stroke-width="0.852713"/>
<path d="M-429.899 837.653L796.977 -34.3255" stroke="#363636" stroke-width="0.852713"/>
<path d="M-429.697 -34.6092L796.775 837.937" stroke="#363636" stroke-width="0.852713"/>
<line x1="-437.325" y1="401.837" x2="805.077" y2="401.837" stroke="#363636" stroke-width="0.852713"/>
<line x1="-437.325" y1="510.984" x2="805.077" y2="510.984" stroke="#363636" stroke-width="0.852713"/>
<path d="M183.876 838.426L796.124 402.593" stroke="#363636" stroke-width="0.852713"/>
<path d="M-430.55 402.31L183.876 838.426" stroke="#363636" stroke-width="0.852713"/>
<path d="M-430.751 401.394L183.876 -34.3256" stroke="#363636" stroke-width="0.852713"/>
<path d="M183.876 -34.3256L795.922 401.677" stroke="#363636" stroke-width="0.852713"/>
<path d="M-429.899 621.064L490 -34.3256" stroke="#363636" stroke-width="0.852713"/>
<path d="M-123.954 -34.3256L796.775 621.348" stroke="#363636" stroke-width="0.852713"/>
<line x1="-437.325" y1="185.248" x2="805.077" y2="185.248" stroke="#363636" stroke-width="0.852713"/>
<line x1="-443.294" y1="74.3953" x2="799.108" y2="74.3953" stroke="#363636" stroke-width="0.852713"/>
<line x1="-445" y1="292.69" x2="797.403" y2="292.69" stroke="#363636" stroke-width="0.852713"/>
<path d="M-123.954 838.426L796.976 184.822" stroke="#363636" stroke-width="0.852713"/>
<path d="M-430.012 185.674L489.685 839.563" stroke="#363636" stroke-width="0.852713"/>
<line x1="-437.325" y1="620.984" x2="805.077" y2="620.984" stroke="#363636" stroke-width="0.852713"/>
<line x1="-438.178" y1="730.132" x2="804.225" y2="730.132" stroke="#363636" stroke-width="0.852713"/>
</svg>
