<svg width="465" height="477" viewBox="0 0 465 477" fill="none" xmlns="http://www.w3.org/2000/svg">
<path d="M17.8322 121.993L22.5307 116.495L65.1524 130.553L65.5334 130.107L45.0074 90.1961L49.7059 84.6985L87.7431 117.207L84.0604 121.516L55.1611 96.8171L54.8436 97.1886L73.584 133.774L70.0284 137.934L30.9701 125.122L30.6526 125.494L59.552 150.193L55.8694 154.501L17.8322 121.993Z" fill="#393939"/>
<path d="M110.854 117.4C110.053 117.96 109.292 118.393 108.572 118.699C107.86 119.017 107.343 119.201 107.018 119.249L105.305 114.245C106.658 113.735 107.747 113.132 108.572 112.436C109.397 111.739 109.902 110.799 110.087 109.616C110.296 108.436 110.14 106.865 109.621 104.902L108.821 101.884L75.8206 78.9365L80.9447 75.35L106.579 93.9095L106.9 93.6853L98.2385 63.2456L103.363 59.6591L114.969 104.022C115.494 106.021 115.686 107.844 115.548 109.492C115.418 111.153 114.957 112.639 114.164 113.949C113.385 115.25 112.281 116.4 110.854 117.4Z" fill="#393939"/>
<path d="M157.659 74.755L143.599 26.7347L159.825 21.984C163.592 20.8809 166.871 20.6593 169.66 21.319C172.461 21.9585 174.777 23.2578 176.606 25.217C178.436 27.1761 179.765 29.5704 180.593 32.3997C181.421 35.229 181.596 37.9698 181.117 40.6219C180.653 43.2695 179.427 45.6312 177.438 47.7071C175.444 49.7673 172.579 51.3443 168.844 52.4382L157.214 55.8433L155.703 50.6849L167.146 47.3347C169.725 46.5795 171.666 45.5275 172.968 44.1789C174.27 42.8302 175.051 41.2947 175.31 39.5725C175.581 37.8301 175.435 35.9975 174.872 34.0748C174.309 32.1521 173.446 30.5379 172.283 29.2322C171.136 27.9219 169.647 27.068 167.816 26.6705C165.981 26.2574 163.758 26.433 161.148 27.1973L150.925 30.1905L163.474 73.0525L157.659 74.755Z" fill="#393939"/>
<path d="M202.884 63.6897L199.042 26.3595L204.583 25.7893L205.164 31.4277L205.552 31.3877C206.043 29.4706 207.12 27.8452 208.784 26.5115C210.448 25.1777 212.398 24.3958 214.634 24.1657C215.055 24.1224 215.582 24.0763 216.216 24.0275C216.849 23.9786 217.33 23.9538 217.657 23.9528L218.258 29.7857C218.058 29.7571 217.605 29.73 216.898 29.7045C216.206 29.6611 215.479 29.6786 214.718 29.7569C212.903 29.9437 211.322 30.4911 209.975 31.3994C208.642 32.2897 207.63 33.4417 206.941 34.8553C206.266 36.2511 206.015 37.7915 206.188 39.4765L208.619 63.0995L202.884 63.6897Z" fill="#393939"/>
<path d="M247.397 63.132C244.018 62.8775 241.115 61.8502 238.686 60.0502C236.273 58.2514 234.461 55.8526 233.25 52.8539C232.055 49.8564 231.603 46.4248 231.894 42.5593C232.187 38.6612 233.15 35.3118 234.782 32.5109C236.431 29.7113 238.582 27.603 241.237 26.1859C243.908 24.7701 246.933 24.1894 250.311 24.4439C253.69 24.6985 256.585 25.7251 258.998 27.524C261.426 29.324 263.238 31.7309 264.432 34.7447C265.642 37.7596 266.1 41.2161 265.807 45.1142C265.516 48.9797 264.546 52.3042 262.899 55.0876C261.268 57.8722 259.117 59.9724 256.446 61.3882C253.791 62.8053 250.775 63.3866 247.397 63.132ZM247.786 57.9671C250.352 58.1605 252.513 57.6617 254.269 56.471C256.024 55.2802 257.381 53.6428 258.338 51.5588C259.296 49.4749 259.869 47.1823 260.057 44.681C260.246 42.1798 260.023 39.8191 259.39 37.599C258.757 35.3788 257.662 33.5405 256.106 32.0838C254.55 30.6272 252.488 29.8022 249.922 29.6089C247.356 29.4155 245.194 29.9224 243.437 31.1294C241.68 32.3364 240.323 33.99 239.364 36.0902C238.405 38.1904 237.832 40.4912 237.643 42.9924C237.455 45.4937 237.678 47.8462 238.312 50.0501C238.947 52.254 240.042 54.0761 241.6 55.5165C243.158 56.9569 245.219 57.7738 247.786 57.9671Z" fill="#393939"/>
<path d="M286.115 30.1937L291.726 31.5218L282.452 70.7028C281.919 72.9535 281.069 74.8111 279.903 76.2757C278.752 77.744 277.293 78.746 275.525 79.2818C273.774 79.8213 271.726 79.8135 269.38 79.2582C269.19 79.2132 268.999 79.1682 268.809 79.1232C268.619 79.0782 268.429 79.0331 268.239 78.9881L269.477 73.7576C269.667 73.8027 269.841 73.8439 270 73.8814C270.158 73.919 270.333 73.9602 270.523 74.0053C272.235 74.4104 273.607 74.1996 274.639 73.3728C275.668 72.5618 276.402 71.2291 276.841 69.3747L286.115 30.1937ZM290.314 24.7601C289.22 24.5013 288.365 23.9056 287.749 22.973C287.149 22.0442 286.972 21.0568 287.22 20.0107C287.468 18.9646 288.068 18.161 289.021 17.5999C289.99 17.0425 291.021 16.8933 292.115 17.1522C293.208 17.411 294.055 18.0048 294.655 18.9336C295.272 19.8662 295.456 20.8555 295.208 21.9016C294.961 22.9477 294.352 23.7494 293.384 24.3067C292.431 24.8679 291.407 25.019 290.314 24.7601Z" fill="#393939"/>
<path d="M311.822 78.3094C308.474 76.9435 305.887 75.0262 304.062 72.5577C302.258 70.0802 301.245 67.2391 301.022 64.0345C300.82 60.8209 301.445 57.4346 302.897 53.8755C304.349 50.3163 306.278 47.4441 308.682 45.2586C311.108 43.0642 313.8 41.6823 316.759 41.1128C319.739 40.5344 322.798 40.8851 325.935 42.1648C327.744 42.9032 329.408 43.9339 330.927 45.257C332.445 46.5802 333.651 48.2157 334.545 50.1637C335.446 52.0965 335.873 54.3468 335.828 56.9144C335.784 59.482 335.1 62.3871 333.777 65.6295L332.854 67.8916L306.07 56.9642L307.953 52.3494L329.308 61.0618C330.107 59.1013 330.429 57.1919 330.272 55.3337C330.131 53.4817 329.525 51.8185 328.456 50.3442C327.401 48.876 325.908 47.7482 323.978 46.9606C321.852 46.0931 319.796 45.8703 317.812 46.2922C315.85 46.7052 314.112 47.5795 312.6 48.9151C311.087 50.2507 309.94 51.8761 309.159 53.7914L307.904 56.8679C306.833 59.492 306.378 61.9011 306.538 64.0951C306.72 66.2801 307.431 68.1799 308.672 69.7945C309.92 71.3941 311.622 72.6338 313.778 73.5136C315.181 74.0858 316.528 74.4066 317.819 74.476C319.131 74.5364 320.365 74.3362 321.52 73.8753C322.682 73.3993 323.735 72.6504 324.68 71.6285L329.247 75.1805C327.99 76.7084 326.45 77.8744 324.627 78.6786C322.81 79.4676 320.808 79.8471 318.621 79.817C316.441 79.7718 314.174 79.2692 311.822 78.3094Z" fill="#393939"/>
<path d="M350.085 98.8921C347.166 96.9276 345.117 94.5468 343.937 91.7497C342.757 88.9527 342.413 85.9628 342.906 82.7802C343.399 79.5975 344.691 76.4523 346.783 73.3446C348.912 70.1827 351.371 67.7836 354.161 66.1471C356.973 64.5062 359.886 63.7083 362.899 63.7533C365.935 63.7939 368.858 64.7601 371.668 66.6518C373.857 68.1252 375.557 69.8585 376.768 71.8516C377.979 73.8446 378.654 75.9483 378.793 78.1625C378.932 80.3766 378.482 82.5476 377.443 84.6752L372.66 81.4555C373.25 79.7912 373.285 77.9889 372.765 76.0486C372.268 74.1039 370.965 72.4221 368.857 71.0032C366.992 69.7481 365.03 69.1341 362.97 69.161C360.932 69.1836 358.931 69.8094 356.965 71.0385C355.021 72.2631 353.258 74.051 351.676 76.4021C350.057 78.8072 349.025 81.1562 348.582 83.4491C348.151 85.7512 348.3 87.8637 349.028 89.7869C349.769 91.7192 351.085 93.322 352.977 94.5953C354.22 95.432 355.494 95.9753 356.798 96.225C358.103 96.4747 359.379 96.4307 360.628 96.0929C361.876 95.7552 363.031 95.1188 364.092 94.1839L368.875 97.4035C367.368 99.0593 365.585 100.264 363.526 101.019C361.49 101.768 359.309 101.989 356.984 101.681C354.682 101.368 352.382 100.438 350.085 98.8921Z" fill="#393939"/>
<path d="M409.786 98.9794L406.416 102.518L392.334 89.1046L395.704 85.5664L409.786 98.9794ZM406.009 82.9654L410.184 86.9421L385.515 112.842C384.392 114.021 383.72 115.069 383.5 115.984C383.304 116.899 383.381 117.715 383.733 118.432C384.107 119.149 384.601 119.799 385.215 120.384C385.675 120.822 386.075 121.158 386.414 121.391C386.765 121.613 387.046 121.791 387.257 121.924L384.534 126.483C384.149 126.32 383.653 126.049 383.045 125.673C382.426 125.307 381.727 124.754 380.948 124.013C379.769 122.889 378.854 121.535 378.205 119.949C377.568 118.375 377.372 116.715 377.618 114.969C377.875 113.235 378.756 111.578 380.261 109.997L406.009 82.9654Z" fill="#393939"/>
<path d="M431.56 138.731L427.265 135.486C427.757 134.705 428.136 133.816 428.402 132.818C428.691 131.823 428.725 130.735 428.505 129.553C428.284 128.372 427.668 127.112 426.655 125.774C425.269 123.943 423.692 122.737 421.924 122.155C420.178 121.576 418.663 121.774 417.377 122.747C416.234 123.612 415.646 124.711 415.613 126.043C415.58 127.376 416.011 129.092 416.907 131.193L419.178 136.46C420.553 139.627 421.069 142.372 420.724 144.696C420.392 147.011 419.181 148.959 417.09 150.542C415.376 151.84 413.47 152.506 411.372 152.542C409.284 152.59 407.187 152.033 405.081 150.869C402.975 149.706 401.042 147.962 399.282 145.637C396.972 142.585 395.722 139.558 395.533 136.555C395.344 133.553 396.32 130.822 398.462 128.362L402.856 131.9C401.561 133.535 400.948 135.235 401.017 137C401.097 138.778 401.849 140.609 403.275 142.492C404.897 144.635 406.639 145.992 408.502 146.564C410.387 147.138 411.973 146.939 413.259 145.966C414.297 145.179 414.892 144.157 415.043 142.899C415.207 141.631 414.894 140.111 414.104 138.339L411.498 132.468C410.073 129.236 409.556 126.461 409.946 124.143C410.36 121.829 411.599 119.89 413.663 118.327C415.352 117.049 417.204 116.392 419.22 116.357C421.246 116.335 423.254 116.869 425.243 117.958C427.241 119.059 429.037 120.662 430.629 122.766C432.871 125.727 433.981 128.543 433.96 131.215C433.949 133.899 433.149 136.404 431.56 138.731Z" fill="#393939"/>
<path d="M447.168 357.51L442.469 363.007L399.848 348.949L399.467 349.395L419.993 389.307L415.294 394.804L377.257 362.296L380.94 357.987L409.839 382.686L410.156 382.314L391.416 345.729L394.972 341.568L434.03 354.381L434.347 354.009L405.448 329.31L409.131 325.001L447.168 357.51Z" fill="#393939"/>
<path d="M354.146 362.103C354.947 361.543 355.708 361.11 356.428 360.804C357.139 360.485 357.657 360.302 357.981 360.254L359.695 365.258C358.341 365.767 357.253 366.37 356.428 367.067C355.603 367.763 355.098 368.703 354.913 369.887C354.704 371.067 354.86 372.638 355.379 374.601L356.179 377.619L389.179 400.566L384.055 404.153L358.421 385.593L358.1 385.817L366.761 416.257L361.637 419.844L350.031 375.481C349.506 373.482 349.314 371.659 349.452 370.011C349.582 368.35 350.043 366.864 350.836 365.553C351.615 364.253 352.719 363.102 354.146 362.103Z" fill="#393939"/>
<path d="M307.341 404.748L321.401 452.768L305.175 457.519C301.408 458.622 298.129 458.843 295.34 458.184C292.539 457.544 290.223 456.245 288.394 454.286C286.564 452.327 285.235 449.932 284.407 447.103C283.579 444.274 283.404 441.533 283.884 438.881C284.347 436.233 285.574 433.871 287.562 431.796C289.556 429.735 292.421 428.158 296.157 427.065L307.786 423.659L309.297 428.818L297.854 432.168C295.275 432.923 293.335 433.975 292.032 435.324C290.73 436.673 289.949 438.208 289.69 439.93C289.419 441.673 289.565 443.505 290.128 445.428C290.691 447.351 291.554 448.965 292.717 450.271C293.865 451.581 295.353 452.435 297.184 452.832C299.019 453.245 301.242 453.07 303.852 452.305L314.075 449.312L301.526 406.45L307.341 404.748Z" fill="#393939"/>
<path d="M262.116 415.813L265.958 453.143L260.417 453.713L259.836 448.075L259.448 448.115C258.957 450.032 257.88 451.657 256.216 452.991C254.552 454.325 252.602 455.107 250.366 455.337C249.945 455.38 249.418 455.426 248.784 455.475C248.151 455.524 247.67 455.549 247.343 455.55L246.742 449.717C246.942 449.746 247.395 449.773 248.102 449.798C248.794 449.842 249.521 449.824 250.282 449.746C252.097 449.559 253.678 449.012 255.025 448.103C256.358 447.213 257.37 446.061 258.059 444.647C258.734 443.252 258.985 441.711 258.812 440.026L256.381 416.403L262.116 415.813Z" fill="#393939"/>
<path d="M217.603 416.371C220.982 416.625 223.885 417.652 226.314 419.452C228.727 421.251 230.539 423.65 231.75 426.649C232.945 429.646 233.397 433.078 233.106 436.943C232.813 440.841 231.85 444.191 230.218 446.992C228.569 449.791 226.418 451.9 223.763 453.317C221.092 454.733 218.067 455.313 214.689 455.059C211.31 454.804 208.415 453.778 206.002 451.979C203.574 450.179 201.762 447.772 200.568 444.758C199.358 441.743 198.9 438.287 199.193 434.389C199.484 430.523 200.454 427.198 202.101 424.415C203.732 421.631 205.883 419.53 208.554 418.114C211.209 416.697 214.225 416.116 217.603 416.371ZM217.214 421.536C214.648 421.342 212.487 421.841 210.731 423.032C208.976 424.223 207.619 425.86 206.662 427.944C205.704 430.028 205.131 432.32 204.943 434.822C204.754 437.323 204.977 439.684 205.61 441.904C206.243 444.124 207.338 445.962 208.894 447.419C210.45 448.876 212.512 449.701 215.078 449.894C217.644 450.087 219.806 449.58 221.563 448.373C223.32 447.166 224.677 445.513 225.636 443.412C226.595 441.312 227.168 439.012 227.357 436.51C227.545 434.009 227.322 431.656 226.688 429.453C226.053 427.249 224.958 425.427 223.4 423.986C221.842 422.546 219.781 421.729 217.214 421.536Z" fill="#393939"/>
<path d="M178.885 449.309L173.274 447.981L182.548 408.8C183.081 406.549 183.931 404.692 185.097 403.227C186.248 401.759 187.707 400.757 189.475 400.221C191.226 399.681 193.274 399.689 195.62 400.244C195.81 400.289 196.001 400.334 196.191 400.38C196.381 400.425 196.571 400.47 196.761 400.515L195.523 405.745C195.333 405.7 195.159 405.659 195 405.621C194.842 405.584 194.667 405.542 194.477 405.497C192.765 405.092 191.393 405.303 190.361 406.13C189.332 406.941 188.598 408.274 188.159 410.128L178.885 449.309ZM174.686 454.743C175.78 455.001 176.635 455.597 177.251 456.53C177.851 457.458 178.028 458.446 177.78 459.492C177.532 460.538 176.932 461.342 175.979 461.903C175.01 462.46 173.979 462.609 172.885 462.351C171.792 462.092 170.945 461.498 170.345 460.569C169.728 459.637 169.544 458.647 169.792 457.601C170.039 456.555 170.648 455.753 171.616 455.196C172.569 454.635 173.593 454.484 174.686 454.743Z" fill="#393939"/>
<path d="M153.178 401.193C156.526 402.559 159.113 404.476 160.938 406.945C162.742 409.422 163.755 412.264 163.978 415.468C164.18 418.682 163.555 422.068 162.103 425.627C160.651 429.186 158.722 432.059 156.318 434.244C153.892 436.438 151.2 437.82 148.241 438.39C145.261 438.968 142.202 438.618 139.065 437.338C137.256 436.6 135.592 435.569 134.073 434.246C132.555 432.923 131.349 431.287 130.455 429.339C129.554 427.406 129.127 425.156 129.172 422.588C129.216 420.021 129.9 417.116 131.223 413.873L132.146 411.611L158.93 422.538L157.047 427.153L135.692 418.441C134.893 420.401 134.571 422.311 134.728 424.169C134.869 426.021 135.475 427.684 136.544 429.159C137.599 430.627 139.092 431.755 141.022 432.542C143.148 433.41 145.204 433.632 147.188 433.21C149.15 432.797 150.888 431.923 152.4 430.588C153.913 429.252 155.06 427.627 155.841 425.711L157.096 422.635C158.167 420.011 158.622 417.602 158.462 415.408C158.28 413.223 157.569 411.323 156.328 409.708C155.08 408.109 153.378 406.869 151.222 405.989C149.819 405.417 148.472 405.096 147.181 405.027C145.869 404.966 144.635 405.167 143.48 405.627C142.318 406.103 141.265 406.852 140.32 407.874L135.753 404.322C137.01 402.794 138.55 401.628 140.373 400.824C142.19 400.035 144.192 399.656 146.379 399.686C148.559 399.731 150.826 400.233 153.178 401.193Z" fill="#393939"/>
<path d="M114.915 380.611C117.834 382.575 119.883 384.956 121.063 387.753C122.243 390.55 122.587 393.54 122.094 396.723C121.601 399.905 120.309 403.05 118.217 406.158C116.088 409.32 113.629 411.719 110.839 413.356C108.027 414.996 105.114 415.794 102.101 415.749C99.0652 415.709 96.1422 414.743 93.3317 412.851C91.1427 411.377 89.4428 409.644 88.232 407.651C87.0211 405.658 86.346 403.554 86.2068 401.34C86.0676 399.126 86.5177 396.955 87.5571 394.827L92.3404 398.047C91.7502 399.711 91.7151 401.514 92.235 403.454C92.7324 405.399 94.0349 407.081 96.1428 408.499C98.0075 409.755 99.9699 410.369 102.03 410.342C104.067 410.319 106.069 409.693 108.035 408.464C109.979 407.24 111.742 405.452 113.324 403.101C114.943 400.695 115.975 398.346 116.418 396.054C116.849 393.752 116.7 391.639 115.972 389.716C115.231 387.784 113.914 386.181 112.023 384.907C110.78 384.071 109.506 383.527 108.201 383.278C106.897 383.028 105.621 383.072 104.372 383.41C103.124 383.748 101.969 384.384 100.908 385.319L96.1247 382.099C97.6318 380.443 99.4148 379.238 101.474 378.484C103.51 377.734 105.691 377.514 108.016 377.822C110.318 378.135 112.618 379.064 114.915 380.611Z" fill="#393939"/>
<path d="M55.2142 380.523L58.5843 376.985L72.6664 390.398L69.2963 393.936L55.2142 380.523ZM58.9909 396.537L54.8158 392.561L79.485 366.661C80.6083 365.481 81.2799 364.434 81.4995 363.519C81.6961 362.604 81.6187 361.788 81.2671 361.07C80.8925 360.354 80.3986 359.703 79.7853 359.119C79.3253 358.681 78.9255 358.345 78.5857 358.111C78.2347 357.889 77.9538 357.712 77.7432 357.579L80.4664 353.02C80.8505 353.183 81.3467 353.453 81.955 353.83C82.5745 354.195 83.2734 354.748 84.0518 355.49C85.2312 356.613 86.1455 357.968 86.7947 359.553C87.4321 361.128 87.628 362.788 87.3825 364.533C87.1251 366.268 86.2438 367.925 84.7385 369.505L58.9909 396.537Z" fill="#393939"/>
<path d="M33.4398 340.772L37.7347 344.017C37.243 344.798 36.8642 345.687 36.5982 346.685C36.3095 347.68 36.2752 348.768 36.4955 349.95C36.7157 351.131 37.3321 352.391 38.3447 353.728C39.7308 355.559 41.3079 356.766 43.0761 357.348C44.8215 357.926 46.3371 357.729 47.6228 356.756C48.7656 355.891 49.3536 354.792 49.3868 353.459C49.4199 352.127 48.9888 350.41 48.0934 348.31L45.8223 343.043C44.4465 339.876 43.931 337.13 44.2758 334.806C44.6075 332.492 45.8188 330.543 47.9097 328.961C49.624 327.663 51.53 326.996 53.6277 326.961C55.7156 326.913 57.8127 327.47 59.9191 328.634C62.0254 329.797 63.9584 331.541 65.718 333.866C68.0282 336.917 69.2779 339.945 69.4672 342.947C69.6564 345.95 68.6799 348.681 66.5375 351.14L62.1436 347.602C63.4394 345.968 64.0524 344.268 63.9827 342.503C63.9031 340.724 63.1506 338.894 61.7252 337.011C60.1031 334.868 58.3608 333.511 56.4982 332.939C54.6127 332.364 53.0271 332.564 51.7414 333.537C50.7025 334.323 50.1076 335.345 49.9569 336.604C49.7931 337.872 50.1061 339.391 50.8958 341.163L53.5019 347.035C54.9268 350.267 55.4441 353.042 55.0537 355.359C54.6405 357.674 53.4014 359.613 51.3365 361.176C49.6483 362.454 47.796 363.111 45.7797 363.146C43.7535 363.168 41.7461 362.634 39.7574 361.545C37.7588 360.443 35.9633 358.84 34.3707 356.736C32.1294 353.775 31.019 350.959 31.0397 348.288C31.0506 345.604 31.8506 343.098 33.4398 340.772Z" fill="#393939"/>
<circle cx="447.5" cy="238.5" r="16.5" fill="#393939"/>
<circle cx="17.5" cy="238.5" r="16.5" fill="#393939"/>
</svg>
